HIERARCHY
ROOT Hips
{
	OFFSET 0.000000 0.000000 0.000000
	CHANNELS 6 Xposition Yposition Zposition Zrotation Yrotation Xrotation 
	JOINT LowerBack
	{
		OFFSET 0.000000 0.000000 0.000000
		CHANNELS 3 Zrotation Yrotation Xrotation
		JOINT Spine
		{
			OFFSET 0.028270 2.035590 -0.193380
			CHANNELS 3 Zrotation Yrotation Xrotation
			JOINT Spine1
			{
				OFFSET 0.056720 2.048850 -0.042750
				CHANNELS 3 Zrotation Yrotation Xrotation
				JOINT Neck
				{
					OFFSET 0.000000 0.000000 0.000000
					CHANNELS 3 Zrotation Yrotation Xrotation
					JOINT Neck1
					{
						OFFSET -0.054170 1.746240 0.172020
						CHANNELS 3 Zrotation Yrotation Xrotation
						JOINT Head
						{
							OFFSET 0.104070 1.761360 -0.123970
							CHANNELS 3 Zrotation Yrotation Xrotation
							End Site
							{
								OFFSET 0.000000 0.000000 0.000000
							}
						}
					}
				}
				JOINT LeftShoulder
				{
					OFFSET 0.000000 0.000000 0.000000
					CHANNELS 3 Zrotation Yrotation Xrotation
					JOINT LeftArm
					{
						OFFSET 3.362410 1.200890 -0.311210
						CHANNELS 3 Zrotation Yrotation Xrotation
						JOINT LeftForeArm
						{
							OFFSET 4.983000 -0.000000 -0.000000
							CHANNELS 3 Zrotation Yrotation Xrotation
							JOINT LeftHand
							{
								OFFSET 3.483560 -0.000000 -0.000000
								CHANNELS 3 Zrotation Yrotation Xrotation
								JOINT LeftFingerBase
								{
									OFFSET 0.000000 0.000000 0.000000
									CHANNELS 3 Zrotation Yrotation Xrotation
									JOINT LeftHandIndex1
									{
										OFFSET 0.715260 -0.000000 -0.000000
										CHANNELS 3 Zrotation Yrotation Xrotation
										End Site
										{
											OFFSET 0.000000 0.000000 0.000000
										}
									}
								}
								JOINT LThumb
								{
									OFFSET 0.000000 0.000000 0.000000
									CHANNELS 3 Zrotation Yrotation Xrotation
									End Site
									{
										OFFSET 0.000000 0.000000 0.000000
									}
								}
							}
						}
					}
				}
				JOINT RightShoulder
				{
					OFFSET 0.000000 0.000000 0.000000
					CHANNELS 3 Zrotation Yrotation Xrotation
					JOINT RightArm
					{
						OFFSET -3.136600 1.374050 -0.404650
						CHANNELS 3 Zrotation Yrotation Xrotation
						JOINT RightForeArm
						{
							OFFSET -5.241900 -0.000000 -0.000000
							CHANNELS 3 Zrotation Yrotation Xrotation
							JOINT RightHand
							{
								OFFSET -3.444170 -0.000000 -0.000000
								CHANNELS 3 Zrotation Yrotation Xrotation
								JOINT RightFingerBase
								{
									OFFSET 0.000000 0.000000 0.000000
									CHANNELS 3 Zrotation Yrotation Xrotation
									JOINT RightHandIndex1
									{
										OFFSET -0.622530 -0.000000 -0.000000
										CHANNELS 3 Zrotation Yrotation Xrotation
										End Site
										{
											OFFSET 0.000000 0.000000 0.000000
										}
									}
								}
								JOINT RThumb
								{
									OFFSET 0.000000 0.000000 0.000000
									CHANNELS 3 Zrotation Yrotation Xrotation
									End Site
									{
										OFFSET 0.000000 0.000000 0.000000
									}
								}
							}
						}
					}
				}
			}
		}
	}
}
}
MOTION
Frames: 12
Frame Time: 0.008333
3.224724 16.383886 0.885624 166.490519 -72.678594 -149.269309 -6.225557 -1.959356 -1.043431 -1.665677 -1.465098 -3.569214 -5.514466 -1.371899 -2.991069 9.860046 -6.070005 -1.963904 -3.401200 -0.311397 1.407091 0.000000 0.000000 0.000000 14.497896 4.119822 1.237701 -66.015483 0.647940 -11.029857 179.522925 -54.474975 179.865023 10.135836 -8.689859 -0.868448 -0.161041 0.956009 -0.000000 0.000000 0.000000 0.000000 0.000000 0.000000 0.000000 4.360036 -1.012410 -4.297448 83.041778 43.805535 22.266420 -179.765509 57.297370 179.720000 -21.352074 23.199190 -4.834353 0.502365 -1.464585 -0.000000 0.000000 0.000000 0.000000 0.000000 0.000000 0.000000 
3.190879 16.428984 0.890736 169.368787 -69.760751 -151.666815 -5.691870 -1.966473 -1.501437 -1.583728 -1.531309 -3.598249 -5.573550 -1.446110 -2.631129 9.908204 -6.422852 -2.478563 -3.366644 -0.304734 1.278148 0.000000 0.000000 0.000000 14.742401 4.485897 1.550819 -63.651211 3.357525 -12.701960 179.707963 -54.056287 179.878271 9.613073 -8.073370 -0.767340 -0.161748 0.914694 -0.000000 0.000000 0.000000 0.000000 0.000000 0.000000 0.000000 4.473604 -0.947928 -4.223831 82.412091 44.128270 23.038008 179.999865 57.416184 179.726880 -21.515091 22.806357 -4.795807 0.534626 -1.457874 -0.000000 0.000000 0.000000 0.000000 0.000000 0.000000 0.000000 
3.154564 16.479190 0.897975 171.778949 -66.834878 -153.557631 -5.055191 -1.959544 -1.961973 -1.487885 -1.594328 -3.628491 -5.646972 -1.516288 -2.273310 9.974945 -6.775082 -2.941766 -3.328395 -0.298368 1.164825 0.000000 0.000000 0.000000 15.016210 4.711933 1.836402 -61.092749 5.995133 -14.387101 179.876185 -53.696875 179.889627 9.172464 -7.564181 -0.687751 -0.164491 0.876972 -0.000000 0.000000 0.000000 0.000000 0.000000 0.000000 0.000000 4.648511 -0.917235 -4.124619 81.602052 44.571720 23.705527 179.781494 57.545985 179.733433 -21.674974 22.404509 -4.752618 0.565436 -1.448951 -0.000000 0.000000 0.000000 0.000000 0.000000 0.000000 0.000000 
3.116568 16.533018 0.906658 173.850842 -63.930469 -155.077472 -4.336162 -1.940618 -2.411753 -1.381293 -1.654027 -3.655331 -5.734864 -1.581941 -1.912776 10.063549 -7.132806 -3.358368 -3.288480 -0.292329 1.065036 0.000000 0.000000 0.000000 15.312352 4.817300 2.096966 -58.307470 8.538096 -16.069401 -179.975406 -53.419358 179.898520 8.883704 -7.180883 -0.633658 -0.171680 0.843682 -0.000000 0.000000 0.000000 0.000000 0.000000 0.000000 0.000000 4.897747 -0.932722 -4.002041 80.620627 45.147657 24.259824 179.582182 57.688184 179.739653 -21.823763 22.014082 -4.707491 0.593898 -1.438240 -0.000000 0.000000 0.000000 0.000000 0.000000 0.000000 0.000000 
3.077648 16.588975 0.916319 175.679204 -61.074115 -156.327051 -3.556890 -1.912965 -2.837462 -1.267290 -1.711212 -3.673662 -5.838032 -1.643487 -1.543643 10.179907 -7.499064 -3.735846 -3.247754 -0.286529 0.975912 0.000000 0.000000 0.000000 15.626130 4.836430 2.335930 -55.260548 10.947964 -17.718065 -179.847738 -53.265200 179.904692 8.797598 -6.925503 -0.606151 -0.185050 0.815115 -0.000000 0.000000 0.000000 0.000000 0.000000 0.000000 0.000000 5.231286 -1.004233 -3.860196 79.479076 45.861605 24.690847 179.406335 57.841659 179.745469 -21.956942 21.650662 -4.662627 0.619190 -1.426119 -0.000000 0.000000 0.000000 0.000000 0.000000 0.000000 0.000000 
3.038874 16.645545 0.926402 177.319098 -58.289497 -157.371304 -2.742497 -1.881413 -3.225853 -1.149540 -1.767853 -3.678358 -5.956588 -1.702552 -1.161080 10.332417 -7.874367 -4.081873 -3.205659 -0.280782 0.894586 0.000000 0.000000 0.000000 15.957458 4.808490 2.557644 -51.919236 13.171711 -19.290261 -179.740049 -53.298895 179.908249 8.934253 -6.776844 -0.602924 -0.205162 0.790774 -0.000000 0.000000 0.000000 0.000000 0.000000 0.000000 0.000000 5.655677 -1.140096 -3.704036 78.190289 46.710176 24.987905 179.260065 58.006935 179.750778 -22.072120 21.324001 -4.619833 0.640463 -1.412802 -0.000000 0.000000 0.000000 0.000000 0.000000 0.000000 0.000000 
3.001304 16.701221 0.936398 178.804578 -55.602622 -158.254930 -1.923990 -1.852501 -3.566958 -1.032454 -1.827133 -3.664985 -6.088917 -1.762082 -0.761244 10.533100 -8.254838 -4.402525 -3.160753 -0.274862 0.818736 0.000000 0.000000 0.000000 16.322227 4.772497 2.767188 -48.277041 15.137234 -20.739420 -179.649663 -53.610650 179.909734 9.259475 -6.718520 -0.619785 -0.230482 0.770333 -0.000000 0.000000 0.000000 0.000000 0.000000 0.000000 0.000000 6.176207 -1.347407 -3.539124 76.762652 47.680366 25.135394 179.151208 58.183775 179.755399 -22.170141 21.034984 -4.579603 0.656948 -1.398256 -0.000000 0.000000 0.000000 0.000000 0.000000 0.000000 0.000000 
2.966224 16.754721 0.945861 -179.850101 -53.038902 -159.007383 -1.135138 -1.833858 -3.851858 -0.921030 -1.893075 -3.630487 -6.232850 -1.826000 -0.344870 10.794141 -8.636499 -4.700158 -3.110640 -0.268533 0.747305 0.000000 0.000000 0.000000 16.738036 4.751906 2.971422 -44.336068 16.779078 -22.015472 -179.573507 -54.305179 179.909864 9.710664 -6.715733 -0.649550 -0.258396 0.752760 -0.000000 0.000000 0.000000 0.000000 0.000000 0.000000 0.000000 6.793054 -1.633385 -3.371447 75.211018 48.747988 25.121490 179.087462 58.372975 179.759155 -22.250561 20.780368 -4.541340 0.667872 -1.382374 -0.000000 0.000000 0.000000 0.000000 0.000000 0.000000 0.000000 
2.934649 16.804831 0.954255 -178.641934 -50.627304 -159.642516 -0.413133 -1.833829 -4.078425 -0.820783 -1.970373 -3.574294 -6.384372 -1.899128 0.084113 11.128566 -9.013989 -4.973123 -3.052797 -0.261623 0.680611 0.000000 0.000000 0.000000 17.232417 4.751483 3.177945 -40.133990 18.039789 -23.073696 -179.508606 -55.499663 179.909559 10.184262 -6.754268 -0.684640 -0.284836 0.737603 -0.000000 0.000000 0.000000 0.000000 0.000000 0.000000 0.000000 7.504108 -2.004978 -3.206698 73.549762 49.877405 24.934303 179.075031 58.574791 179.761883 -22.313532 20.551490 -4.503235 0.672685 -1.364954 -0.000000 0.000000 0.000000 0.000000 0.000000 0.000000 0.000000 
2.907659 16.850683 0.961414 -177.569478 -48.394733 -160.177113 0.209064 -1.859709 -4.245234 -0.736671 -2.063056 -3.497836 -6.539169 -1.985817 0.516968 11.545998 -9.384327 -5.216997 -2.984623 -0.254013 0.620018 0.000000 0.000000 0.000000 17.825816 4.756313 3.394592 -35.721620 18.890556 -23.866455 -179.454215 -57.311351 179.909661 10.577021 -6.822486 -0.717372 -0.306017 0.724317 -0.000000 0.000000 0.000000 0.000000 0.000000 0.000000 0.000000 8.300632 -2.467944 -3.051342 71.801789 51.025247 24.568833 179.116966 58.789801 179.763498 -22.356640 20.339616 -4.463079 0.671016 -1.345891 -0.000000 0.000000 0.000000 0.000000 0.000000 0.000000 0.000000 
2.886078 16.891676 0.967011 -176.638229 -46.367745 -160.613482 0.701405 -1.917797 -4.358044 -0.672948 -2.174729 -3.405295 -6.691087 -2.090262 0.943146 12.053447 -9.746591 -5.425965 -2.904227 -0.245679 0.567512 0.000000 0.000000 0.000000 18.539428 4.733713 3.627134 -31.180697 19.330271 -24.348519 -179.413367 -59.858400 179.910910 10.796114 -6.939022 -0.743250 -0.318904 0.713088 -0.000000 0.000000 0.000000 0.000000 0.000000 0.000000 0.000000 9.170792 -3.027512 -2.911596 69.993225 52.142283 24.026314 179.211789 59.016330 179.764007 -22.379081 20.135722 -4.418957 0.662999 -1.325206 -0.000000 0.000000 0.000000 0.000000 0.000000 0.000000 0.000000 
2.870441 16.927525 0.971050 -175.846052 -44.566445 -160.960719 1.046648 -2.011827 -4.420763 -0.631361 -2.307417 -3.301868 -6.833534 -2.215216 1.350138 12.650215 -10.103129 -5.595426 -2.810528 -0.236659 0.524840 0.000000 0.000000 0.000000 19.382104 4.642473 3.878219 -26.599683 19.388857 -24.473780 -179.393739 -63.241659 179.913742 10.793563 -7.133322 -0.761669 -0.322589 0.704241 -0.000000 0.000000 0.000000 0.000000 0.000000 0.000000 0.000000 10.093391 -3.685590 -2.794687 68.159734 53.179769 23.318099 179.353099 59.246743 179.763512 -22.379687 19.934229 -4.369858 0.649239 -1.303227 -0.000000 0.000000 0.000000 0.000000 0.000000 0.000000 0.000000 
